<svg width="77" height="69" fill="none" xmlns="http://www.w3.org/2000/svg"><path d="M71.9 46H4.3C1.9 46 0 48 0 50.3v3.5C0 56.1 1.9 58 4.3 58h1v1c0 5.5 4.5 9.9 9.9 9.9H61c5.5 0 9.9-4.5 9.9-9.9v-1h1c2.3 0 4.3-1.9 4.3-4.3v-3.5c0-2.2-1.9-4.2-4.3-4.2zM68 59c0 3.8-3.1 6.9-6.9 6.9h-46c-3.8 0-6.9-3.1-6.9-6.9v-1H68v1zm5.2-5.3c0 .7-.6 1.3-1.3 1.3H4.3c-.7 0-1.3-.6-1.3-1.3v-3.5c0-.6.6-1.2 1.3-1.2H72c.7 0 1.3.6 1.3 1.3v3.4h-.1zm-57-15.8l5.4 4 5.5-4 5.5 4 5.5-4 5.4 4 5.5-4 5.5 4 5.5-4 5.5 4 6.3-4.7-1.7-2.4-4.6 3.3-5.5-4-5.5 4-5.5-4-5.5 4-5.4-4-5.5 4-5.5-4-5.5 4-5.4-4-5.5 4-4.6-3.3-1.8 2.4 6.4 4.7 5.5-4zm54.7-6.8c0-.6.1-2.6 0-3C70.2 12.5 55.8 0 38.1 0 20.4 0 5.9 12.5 5.2 28.1v3h65.7zM38.1 3c16 0 29.2 11.2 29.8 25.1H8.2C8.9 14.2 22.1 3 38.1 3z" fill="#81B3D2"/><path d="M38.1 17a2 2 0 100-4 2 2 0 000 4zm-8-4.9a2 2 0 100-4 2 2 0 000 4zm16 0a2 2 0 100-4 2 2 0 000 4z" fill="#81B3D2"/></svg>