<svg width="39" height="36" viewBox="0 0 39 36" fill="none" xmlns="http://www.w3.org/2000/svg">
<path d="M15.4015 32.4095H23.7549V20.5479H15.4015V32.4095ZM22.2408 30.9703H16.9155V21.9871H22.1886V30.9703H22.2408Z" fill="#81B3D2"/>
<path d="M37.9036 19.5545L39 18.5122L33.8313 13.5988V0.198523H26.6265V6.74977L19.4739 0L0 18.5619L1.09639 19.6041L5.16867 15.7329V34.4933H3.13253V35.9326H36.494V34.4933H33.8313V15.6833L37.9036 19.5545ZM28.1406 1.68744H32.2651V12.1595L28.1406 8.23869V1.68744ZM32.3173 34.4437H6.73494V14.244L19.4739 2.08449L32.2651 14.244V34.4437H32.3173Z" fill="#81B3D2"/>
<path d="M15.5582 13.4995C15.5582 15.6336 17.3855 17.3706 19.5783 17.3706C21.8233 17.3706 23.6506 15.6336 23.6506 13.4995C23.6506 11.3654 21.8233 9.67798 19.5783 9.67798C17.3333 9.67798 15.5582 11.3654 15.5582 13.4995ZM19.5783 11.018C20.9879 11.018 22.1887 12.1098 22.1887 13.4995C22.1887 14.8395 21.0402 15.981 19.5783 15.981C18.1687 15.981 16.9679 14.8891 16.9679 13.4995C16.9679 12.1595 18.1687 11.018 19.5783 11.018Z" fill="#81B3D2"/>
<path d="M10.3895 20.5479H8.82324V22.4834H10.3895V20.5479Z" fill="#81B3D2"/>
<path d="M13.4698 20.5479H11.9036V22.4834H13.4698V20.5479Z" fill="#81B3D2"/>
<path d="M10.3895 23.525H8.82324V25.4606H10.3895V23.525Z" fill="#81B3D2"/>
<path d="M13.4698 23.525H11.9036V25.4606H13.4698V23.525Z" fill="#81B3D2"/>
<path d="M27.0443 20.5479H25.478V22.4834H27.0443V20.5479Z" fill="#81B3D2"/>
<path d="M30.1769 20.5479H28.6106V22.4834H30.1769V20.5479Z" fill="#81B3D2"/>
<path d="M27.0443 23.525H25.478V25.4606H27.0443V23.525Z" fill="#81B3D2"/>
<path d="M30.1769 23.525H28.6106V25.4606H30.1769V23.525Z" fill="#81B3D2"/>
</svg>
