<svg width="32" height="37" viewBox="0 0 32 37" fill="none" xmlns="http://www.w3.org/2000/svg">
<path d="M30.5778 10.9109H30.527H18.1841C25.0921 7.55731 25.6508 5.43664 25.3968 4.25302C24.8381 2.32963 22.5524 0.850093 20.419 1.63918C17.6254 2.67485 16.8635 6.71891 16.1016 9.62865C15.1365 6.66959 14.2222 2.92144 12.0381 0.998046C11.4286 0.455551 10.5143 -0.0869444 9.14286 0.0116911C7.11111 0.208962 4.21587 2.62553 5.43492 5.33801C6.55238 7.95185 10.2603 9.62865 12.7492 10.9602H1.42222C0.609524 10.9602 0 11.6014 0 12.3411V17.8647C0 18.6538 0.660317 19.2456 1.42222 19.2456H1.5746V37H30.527V19.2456H30.5778C31.3905 19.2456 32 18.6045 32 17.8647V12.3411C32 11.552 31.3397 10.9109 30.5778 10.9109ZM21.2317 2.87212C22.2984 2.72417 23.7206 3.51325 23.873 4.45029C24.0762 5.78187 22.1968 7.01481 21.3333 7.55731C20.0635 8.39571 18.8444 8.83957 17.6762 9.53002C18.0825 7.70526 18.946 3.16803 21.2317 2.87212ZM9.75238 7.70526C8.63492 6.96549 6.50159 5.53528 6.55238 3.90779C6.60317 2.13235 9.44762 0.702139 10.9714 2.03372C12.9016 3.6612 13.8159 7.45867 14.527 10.1218C12.9016 9.33275 11.3778 8.74093 9.75238 7.70526ZM12.7492 35.5205H3.04762V19.2456H12.7492V35.5205ZM12.7492 17.7661H1.52381V12.3904H12.7492V17.7661ZM17.8286 35.5205H14.2222V12.3904H17.8286V35.5205ZM29.0032 35.5205H19.3524V19.2456H29.054V35.5205H29.0032ZM30.4762 17.7661H19.3524V12.3904H30.4762V17.7661Z" fill="#81B3D2"/>
</svg>
