<svg width="40" height="35" viewBox="0 0 40 35" fill="none" xmlns="http://www.w3.org/2000/svg">
<path d="M37.7428 22.7324H2.25722C0.997375 22.7324 0 23.7208 0 24.8574V26.5871C0 27.7237 0.997375 28.6627 2.25722 28.6627H2.78215V29.1569C2.78215 31.8749 5.14436 34.0493 7.979 34.0493H32.021C34.9081 34.0493 37.2179 31.8255 37.2179 29.1569V28.6627H37.7428C38.9501 28.6627 40 27.7237 40 26.5377V24.808C40 23.7208 39.0026 22.7324 37.7428 22.7324ZM35.6955 29.1569C35.6955 31.0348 34.0682 32.5668 32.0735 32.5668H7.92651C5.93176 32.5668 4.30446 31.0348 4.30446 29.1569V28.6627H35.6955V29.1569ZM38.4252 26.5377C38.4252 26.8836 38.1102 27.1801 37.7428 27.1801H2.25722C1.88976 27.1801 1.5748 26.8836 1.5748 26.5377V24.808C1.5748 24.5115 1.88976 24.215 2.25722 24.215H37.7953C38.1627 24.215 38.4777 24.5115 38.4777 24.8574V26.5377H38.4252Z" fill="#81B3D2"/>
<path d="M8.50396 18.7293L11.3386 20.7059L14.2257 18.7293L17.1129 20.7059L20 18.7293L22.8347 20.7059L25.7218 18.7293L28.6089 20.7059L31.4961 18.7293L34.3832 20.7059L37.6903 18.3834L36.7979 17.1974L34.3832 18.8281L31.4961 16.8514L28.6089 18.8281L25.7218 16.8514L22.8347 18.8281L20 16.8514L17.1129 18.8281L14.2257 16.8514L11.3386 18.8281L8.50396 16.8514L5.61681 18.8281L3.20212 17.1974L2.25723 18.3834L5.61681 20.7059L8.50396 18.7293Z" fill="#81B3D2"/>
<path d="M37.2179 15.3691C37.2179 15.0726 37.2704 14.0843 37.2179 13.8866C36.8504 6.17731 29.2913 0 20 0C10.7087 0 3.09712 6.17731 2.72967 13.8866C2.72967 14.0843 2.72967 15.0726 2.72967 15.3691H37.2179ZM20 1.48255C28.399 1.48255 35.3281 7.01742 35.6431 13.8866H4.30447C4.67193 7.01742 11.6011 1.48255 20 1.48255Z" fill="#81B3D2"/>
<path d="M20 8.40112C20.5798 8.40112 21.0499 7.95863 21.0499 7.41278C21.0499 6.86693 20.5798 6.42444 20 6.42444C19.4202 6.42444 18.9501 6.86693 18.9501 7.41278C18.9501 7.95863 19.4202 8.40112 20 8.40112Z" fill="#81B3D2"/>
<path d="M15.8005 5.97925C16.3803 5.97925 16.8504 5.53672 16.8504 4.99084C16.8504 4.44496 16.3803 4.00244 15.8005 4.00244C15.2207 4.00244 14.7506 4.44496 14.7506 4.99084C14.7506 5.53672 15.2207 5.97925 15.8005 5.97925Z" fill="#81B3D2"/>
<path d="M24.1995 5.97925C24.7793 5.97925 25.2493 5.53672 25.2493 4.99084C25.2493 4.44496 24.7793 4.00244 24.1995 4.00244C23.6196 4.00244 23.1496 4.44496 23.1496 4.99084C23.1496 5.53672 23.6196 5.97925 24.1995 5.97925Z" fill="#81B3D2"/>
</svg>
