<svg width="40" height="35" fill="none" xmlns="http://www.w3.org/2000/svg"><path d="M37.743 22.732H2.257c-1.26 0-2.257.989-2.257 2.125v1.73c0 1.137.997 2.076 2.257 2.076h.525v.494c0 2.718 2.362 4.892 5.197 4.892h24.042c2.887 0 5.197-2.223 5.197-4.892v-.494h.525c1.207 0 2.257-.94 2.257-2.125v-1.73c0-1.087-.997-2.076-2.257-2.076zm-2.047 6.425c0 1.878-1.628 3.41-3.622 3.41H7.927c-1.995 0-3.623-1.532-3.623-3.41v-.494h31.392v.494zm2.73-2.62c0 .347-.316.643-.683.643H2.257c-.367 0-.682-.296-.682-.642v-1.73c0-.296.315-.593.682-.593h35.538c.368 0 .683.297.683.642v1.68h-.053zM8.504 18.73l2.835 1.976 2.887-1.977 2.887 1.977L20 18.729l2.835 1.977 2.887-1.977 2.887 1.977 2.887-1.977 2.887 1.977 3.307-2.323-.892-1.186-2.415 1.631-2.887-1.977-2.887 1.977-2.887-1.977-2.887 1.977L20 16.851l-2.887 1.977-2.887-1.977-2.887 1.977-2.835-1.977-2.887 1.977-2.415-1.63-.945 1.185 3.36 2.323 2.887-1.977zm28.714-3.36c0-.297.052-1.286 0-1.483C36.85 6.177 29.29 0 20 0S3.097 6.177 2.73 13.887v1.482h34.488zM20 1.482c8.399 0 15.328 5.534 15.643 12.404H4.304C4.672 7.017 11.601 1.483 20 1.483z" fill="#81B3D2"/><path d="M20 8.401c.58 0 1.05-.442 1.05-.988s-.47-.989-1.05-.989c-.58 0-1.05.443-1.05.989s.47.988 1.05.988zM15.8 5.98c.58 0 1.05-.443 1.05-.99 0-.545-.47-.988-1.05-.988-.58 0-1.05.443-1.05.989s.47.988 1.05.988zm8.4 0c.58 0 1.05-.443 1.05-.99 0-.545-.47-.988-1.05-.988-.58 0-1.05.443-1.05.989s.47.988 1.05.988z" fill="#81B3D2"/></svg>