<svg width="282" height="209" fill="none" xmlns="http://www.w3.org/2000/svg"><path d="M101.385 41.766l-.123.12c-.859.894-1.84 1.312-2.761 1.312l1.718-2.923c1.105-1.85.061-3.64-1.657-3.64-1.412 0-2.516.537-3.56 2.327l-.92 1.551-.737 1.253-.122.12c-1.35 1.49-2.64 2.684-3.437 2.684-.43 0-.614-.298-.184-.955l3.927-6.681h1.473l.553-.836H94.02l1.719-2.923h-1.841l-1.719 2.923h-1.657l-.552.836h1.657l-3.682 6.204c-.798 1.313-.246 2.566 1.227 2.566 1.044 0 2.27-.776 3.376-1.85 0 2.267 3.252 2.744 5.216.298h.43c1.104 0 2.823-.656 3.743-1.73 0-.298-.307-.537-.552-.656zm-3.928.12h-.061c-.614 0-1.105.477-1.105 1.073 0 .239.062.418.184.597v.06c-.859 1.431-2.945 1.193-1.902-.716l1.411-2.327.86-1.432c1.288-2.148 3.068-1.313 1.963.537l-1.35 2.207zm29.397-.12l-.123.12c-1.35 1.49-3.007 2.684-4.296 2.684-1.104 0-1.78-.716-.982-2.148l.184-.298c1.166.477 3.437.238 4.787-2.088l.246-.418c.982-1.67.061-2.864-1.473-2.864-1.473 0-2.639.776-3.437 2.089l-1.78 2.982-.122.12c-1.35 1.491-2.639 2.684-3.437 2.684-.43 0-.614-.298-.184-.954l2.639-4.534c.798-1.372.061-2.327-.982-2.327-.798 0-1.657.418-2.578 1.372l2.946-4.951h-1.841l-5.094 8.53-.123.12c-1.35 1.492-2.639 2.685-3.436 2.685-.43 0-.614-.299-.185-.955l3.928-6.682h1.473l.552-.835h-1.534l1.719-2.923h-1.842l-1.718 2.923h-1.657l-.552.835h1.657l-3.683 6.205c-.797 1.312-.245 2.565 1.228 2.565.736 0 1.534-.358 2.332-.954l-.491.775h1.841l2.762-4.713c2.823-3.46 4.05-2.983 3.314-1.67l-2.394 4.057c-.797 1.312-.245 2.565 1.228 2.565 1.104 0 2.332-.835 3.437-1.91.061 1.134 1.043 1.91 2.516 1.91 2.086 0 4.173-1.551 5.646-3.281.061-.358-.246-.597-.491-.716zm-3.498-2.506c1.043-1.79 2.946-1.491 1.841.358l-.246.418c-.859 1.431-2.086 1.431-2.761 1.193l1.166-1.969zm70.454 2.506l-.123.12c-.675.775-1.473 1.431-2.209 1.968.613-1.73.429-4.295 1.595-6.622l-1.35-.716c-.736 1.014-2.393 3.34-4.112 5.25l-.123.12c-1.35 1.49-2.639 2.684-3.436 2.684-.43 0-.614-.298-.184-.955l3.927-6.681h-1.841l-3.253 5.548c-1.411 1.253-2.454 1.909-2.823 1.79-.429-.18 0-.836.246-1.253l3.559-6.085h-1.841l-2.884 4.832-.123.12c-.859.894-1.841 1.312-2.762 1.312l1.719-2.923c1.104-1.85.061-3.64-1.657-3.64-1.412 0-2.516.537-3.56 2.327l-.92 1.551-.737 1.253-.122.12c-1.351 1.49-3.008 2.684-4.296 2.684-1.105 0-1.78-.716-.982-2.148l.184-.298c1.166.477 3.436.239 4.787-2.088l.245-.418c.982-1.67.062-2.863-1.473-2.863-1.473 0-2.639.775-3.437 2.088l-1.779 2.983-.123.119c-1.534 1.73-2.823 2.804-4.296 3.4l4.112-6.86h-1.105c0-.716-.798-1.73-1.902-1.73-.982 0-2.394.775-3.13 2.088l-1.78 2.983-.123.119c-1.35 1.491-2.639 2.685-3.437 2.685-.429 0-.613-.299-.184-.955l1.841-3.102c.614-1.074.307-1.73-.245-2.446l-1.043-1.193c-.246-.299-.246-.716.122-1.015l-.982-1.014c-1.043.895-1.104 1.91-.49 2.745l.184.178c-.798 1.134-1.903 2.625-3.13 3.998l-.123.119c-.859.895-1.841 1.312-2.762 1.312l1.719-2.923c1.104-1.85.061-3.639-1.657-3.639-1.412 0-2.517.537-3.56 2.327l-.92 1.55-.737 1.254-.123.119c-1.534 1.73-2.823 2.804-4.296 3.4l4.112-6.86h-1.104c0-.716-.798-1.73-1.903-1.73-.982 0-2.393.775-3.13 2.088l-2.577 4.355c-.798 1.312-.246 2.565 1.227 2.565.491 0 1.105-.238 1.78-.596l-.491.835c-2.455.716-4.051 1.73-4.051 3.042 0 1.73 2.701 2.088 4.051-.119l1.411-2.327c1.473-.417 2.885-1.312 4.419-2.684 0 2.267 3.253 2.744 5.217.298h.429c1.105 0 2.823-.656 3.744-1.73.859-1.014 1.595-1.91 3.068-3.818l.246.298c.245.298.307.656.123 1.014l-1.964 3.281c-.798 1.313-.246 2.566 1.227 2.566.921 0 1.964-.597 2.946-1.432 0 .835.552 1.432 1.596 1.432.491 0 1.104-.239 1.779-.597l-.429.716c-2.455.716-4.051 1.73-4.051 3.043 0 1.73 2.701 2.088 4.051-.12l1.411-2.326c1.473-.478 2.946-1.313 4.48-2.745.062 1.134.982 1.91 2.517 1.91 1.472 0 3.007-.836 4.234-1.91-.061 2.327 3.253 2.804 5.217.358h.429c.553 0 1.35-.179 2.026-.537-.491 1.253-.062 2.088.981 2.088.982 0 2.148-.894 3.008-1.73-.184.955.429 1.73 1.595 1.73 1.535 0 3.253-1.55 4.787-3.28 1.044-1.194 1.964-2.447 2.639-3.282-.736 1.85-.307 5.19-2.086 5.19-.614 0-.86-.656-.86-.656l-1.166.597s.307 1.431 2.026 1.431c.184 0 .306 0 .491-.06h.061c1.902-.238 3.744-1.67 5.094-3.22-.062-.3-.368-.597-.675-.657zm-26.329-2.506c1.044-1.79 2.946-1.491 1.842.358l-.246.418c-.859 1.432-2.086 1.432-2.762 1.193l1.166-1.969zm-35.104 9.307c-.368.656-.982.597-.982.06 0-.478.43-1.015 1.841-1.551l-.859 1.491zm.859-3.997c-.429 0-.613-.298-.184-.955l2.578-4.355c.982-1.67 2.946-1.252 2.025.358l-1.411 2.387c-1.105 1.73-2.271 2.565-3.008 2.565zm11.293-2.685h-.062c-.613 0-1.104.478-1.104 1.074 0 .239.061.418.184.597v.06c-.859 1.431-2.946 1.193-1.903-.716l1.412-2.327.859-1.432c1.289-2.148 3.069-1.313 1.964.537l-1.35 2.207zm11.537 6.682c-.368.656-.981.597-.981.06 0-.478.429-1.015 1.841-1.551l-.86 1.491zm.86-3.997c-.43 0-.614-.298-.184-.955l2.577-4.355c.982-1.67 2.946-1.252 2.025.358l-1.411 2.387c-1.105 1.73-2.271 2.565-3.007 2.565zm18.104-2.685h-.061c-.614 0-1.105.478-1.105 1.074 0 .239.061.418.184.597v.06c-.859 1.431-2.946 1.193-1.902-.716l1.411-2.327.859-1.432c1.289-2.148 3.069-1.313 1.964.537l-1.35 2.207zm-95.186-2.029H62.107v1.193h17.737v-1.193zm139.312 0H201.42v1.193h17.736v-1.193z" fill="#766458"/><path d="M100.035.005h4.725l-.736 26.787h-8.899l-1.227-11.037-1.228 11.037h-8.96L83.035.005H87.7l.368 22.193h.492L91.566.005h4.664l3.007 22.193h.491l.307-22.193zm19.516 22.193v4.653h-12.827V.005h12.827v4.594h-8.163v6.443h6.506v4.594h-6.506v6.502h8.163v.06zm13.133 0v4.653h-11.231V.005h4.665v22.193h6.566zm9.942-5.25l4.726-1.074v8.114c0 1.55-1.35 2.804-2.885 2.804h-7.057c-1.596 0-2.885-1.313-2.885-2.804V2.808c0-1.55 1.289-2.803 2.885-2.803h7.057c1.535 0 2.885 1.253 2.885 2.804v5.429l-4.726 1.074V4.539h-3.375v17.6h3.375v-5.191zM160.117.005c1.534 0 2.884 1.253 2.884 2.804v21.12c0 1.55-1.35 2.803-2.884 2.803h-7.058c-1.595 0-2.884-1.313-2.884-2.804V2.808c0-1.55 1.289-2.803 2.884-2.803h7.058zm-1.841 4.594h-3.375v17.599h3.375v-17.6zM178.344.005h4.665v26.787h-4.665V13.607l-1.902 6.801h-4.603l-1.841-6.8v13.184h-4.664V.005h4.664l4.173 12.946L178.344.005zm19.823 22.193v4.653h-12.826V.005h12.826v4.594h-8.162v6.443h6.505v4.594h-6.505v6.502h8.162v.06z" fill="#81B3D3"/><path d="M27.187 94.028c-2.209-1.79-4.97-2.983-7.917-2.983-2.209 0-5.093 1.253-5.093 3.758 0 2.626 3.252 3.64 5.278 4.236l3.068.895c6.383 1.85 11.354 4.952 11.354 12.171 0 4.414-1.105 9.008-4.726 11.991-3.62 2.983-8.408 4.176-13.01 4.176-5.77 0-11.477-1.909-16.141-5.071l4.971-9.247c3.007 2.565 6.505 4.594 10.617 4.594 2.823 0 5.77-1.372 5.77-4.475 0-3.281-4.665-4.355-7.243-5.071-7.487-2.147-12.397-3.997-12.397-12.647 0-9.069 6.628-14.975 15.834-14.975 4.603 0 10.31 1.432 14.361 3.7l-4.726 8.948zm29.029-1.67v7.457h13.44v9.844h-13.44v7.696h14.238v9.843H44.31V82.574h26.144v9.843l-14.238-.06zm23.075-9.784H96.23c12.765 0 23.321 9.784 23.321 22.312s-10.617 22.312-23.321 22.312H79.29V82.574zm11.968 34.781h2.7c7.119 0 13.195-3.819 13.195-12.469 0-7.994-5.401-12.469-13.072-12.469h-2.823v24.938zm84.692-13.304c0 14.437-10.679 24.639-25.408 24.639-14.729 0-25.407-10.202-25.407-24.639 0-13.483 12.212-22.969 25.407-22.969s25.408 9.486 25.408 22.969zm-38.418.059c0 7.696 5.83 13.304 12.949 13.304s12.949-5.608 12.949-13.304c0-6.145-5.83-11.812-12.949-11.812-7.058 0-12.949 5.667-12.949 11.812zm44.739-21.536h11.967l21.848 27.323h.123V82.574h11.968v44.624H216.21l-21.848-27.383h-.123v27.383h-11.967V82.574zm67.57 36.869l-3.192 7.755h-12.642l17.675-44.624h13.01L282 127.198h-12.704l-3.007-7.755h-16.447zm8.346-23.088h-.123l-4.909 14.199h9.942l-4.91-14.2zM66.22 171.643c4.725-1.551 5.032-7.279.43-7.279-1.29 0-2.824.895-3.867 2.625l-6.26 10.56c-.307.477-.552.895-.92 1.312-1.596-2.147-1.167-5.369 1.104-6.801l-.92-1.133c-4.91 3.042-3.437 11.753 4.725 11.753 6.935 0 10.188-8.114 5.708-11.037zm-5.77 9.307c-1.41 0-2.454-.299-3.375-.776.43-.477.798-1.014 1.166-1.611l3.928-6.622.614.06c5.462 1.133 3.314 8.949-2.332 8.949zm2.517-10.321l1.902-3.162c1.719-2.864 3.867-1.193 2.7.954-.92 1.671-2.209 2.148-4.602 2.208z" fill="#fff"/><path d="M85.92 178.981c-.369 1.313.368 2.446 1.902 2.446.92 0 2.087-.596 3.253-1.491.123.895.859 1.491 2.025 1.491 1.227 0 2.578-.835 3.928-2.028-.246 1.193.307 2.028 1.473 2.028 1.288 0 2.7-1.133 3.805-2.147-.246 1.193.491 2.147 1.964 2.147 1.902 0 4.111-2.028 6.075-4.176 0-.059-.061-.059-.061-.119 1.289-1.432 2.393-2.983 3.253-4.057-.921 2.327-.43 6.563-2.639 6.563-.798 0-1.105-.836-1.105-.836l-1.473.716s.43 1.85 2.578 1.85c.245 0 .429 0 .675-.06h.061c1.718-.239 3.375-1.253 4.848-2.506.062 1.492 1.228 2.566 3.13 2.566 2.639 0 5.278-2.029 7.181-4.176-.184-.299-.553-.657-.859-.776l-.185.179c-1.657 1.909-3.805 3.401-5.462 3.401-1.411 0-2.27-.895-1.227-2.685l.245-.418c1.473.597 4.296.299 6.076-2.625l.307-.537c1.227-2.088.061-3.639-1.841-3.639-1.903 0-3.376.955-4.357 2.625l-2.271 3.759h-.062l-.184.179c-.859.954-1.902 1.849-2.823 2.446.737-2.148.553-5.489 2.026-8.353l-1.719-.894c-.982 1.312-3.068 4.235-5.155 6.622l.061.059-.061.12c-1.657 1.909-3.314 3.4-4.357 3.4-.491 0-.798-.358-.246-1.253l4.971-8.471h-2.332l-4.112 7.04c-1.78 1.551-3.13 2.446-3.56 2.267-.552-.239 0-1.074.308-1.552l4.541-7.696h-2.332l-3.682 6.205c-.062-.06-.123-.06-.184-.119l-.185.179c-1.657 1.909-3.314 3.4-4.357 3.4-.49 0-.798-.358-.245-1.253l3.743-6.383h-1.35c.061-.955-.92-2.267-2.455-2.267-1.227 0-3.007.954-3.989 2.625l-2.332 3.937a1.277 1.277 0 00-.368-.238l-.184.179c-1.657 1.909-3.805 3.4-5.462 3.4-1.412 0-2.271-.895-1.228-2.684l2.394-4.057c1.35-2.267 3.743-1.85 2.332.477l-.307.537h1.902l.307-.537c1.228-2.088.062-3.639-1.84-3.639-1.903 0-3.376.954-4.358 2.625l-2.332 3.878c-.062-.06-.123-.06-.184-.12l-.184.179c-1.657 1.909-3.806 3.401-5.463 3.401-1.411 0-2.27-.895-1.227-2.685l.246-.417c1.472.596 4.296.298 6.075-2.625l.307-.537c1.228-2.088.062-3.639-1.841-3.639s-3.375.954-4.357 2.625l-2.455 4.056c-1.473 2.387-.184 4.654 2.577 4.654 2.026 0 4.112-1.194 5.77-2.745-.062 1.551 1.165 2.745 3.13 2.745 1.963-.12 3.866-1.194 5.523-2.566zm35.595-5.727c1.35-2.267 3.743-1.849 2.332.477l-.307.537c-1.105 1.85-2.639 1.79-3.498 1.492l1.473-2.506zm-33.263 5.548l3.252-5.488c1.228-2.088 3.744-1.551 2.578.477l-1.841 3.102c-1.412 2.148-2.823 3.162-3.744 3.162-.49-.059-.798-.358-.245-1.253zM73.4 173.254c1.35-2.267 3.743-1.849 2.332.477l-.307.537c-1.105 1.85-2.639 1.79-3.498 1.492l1.473-2.506zm78.923 8.173c2.639 0 5.278-2.028 7.18-4.176-.184-.298-.552-.656-.859-.776l-.184.179c-1.657 1.909-3.805 3.401-5.462 3.401-1.411 0-2.271-.895-1.227-2.685l.245-.417c1.473.596 4.296.298 6.076-2.625l.307-.537c1.227-2.088.061-3.639-1.841-3.639-1.903 0-3.376.954-4.358 2.625l-2.27 3.758s-.062 0-.062-.06l-.184.179c-1.657 1.909-3.314 3.401-4.357 3.401-.491 0-.798-.358-.246-1.253l3.376-5.727c.982-1.73.061-2.983-1.228-2.983-.982 0-2.086.537-3.252 1.73l3.743-6.264h-2.393l-6.567 11.037c-.061-.06-.184-.12-.245-.179l-.185.179c-1.657 1.909-3.314 3.4-4.357 3.4-.491 0-.798-.358-.245-1.253l4.971-8.471h1.902l.675-1.074h-1.902l2.209-3.699h-2.332l-2.209 3.699h-2.087l-.675 1.074h2.148l-4.664 7.875c-.982 1.67-.307 3.221 1.595 3.221 1.166 0 2.394-.716 3.683-1.789l-.921 1.551h2.332l3.56-5.966c3.559-4.355 5.155-3.818 4.173-2.148l-3.007 5.131c-.982 1.67-.307 3.221 1.595 3.221 1.412 0 3.008-1.074 4.48-2.505 0 1.491 1.167 2.565 3.069 2.565zm1.903-8.173c1.35-2.267 3.743-1.85 2.332.477l-.307.537c-1.105 1.849-2.639 1.79-3.498 1.491l1.473-2.505zm68.674 3.221l-.184.179c-1.657 1.909-3.314 3.4-4.358 3.4-.491 0-.797-.358-.245-1.252l7.855-13.245h-2.332l-3.437 5.728c-.429-.657-1.166-1.194-2.148-1.194-1.227 0-3.007.955-3.989 2.625l-2.27 3.818c-.062 0-.123-.059-.123-.059l-.184.179c-1.657 1.909-3.314 3.4-4.358 3.4-.491 0-.797-.358-.245-1.252l3.375-5.728c.982-1.73.062-2.983-1.227-2.983-.982 0-2.087.537-3.253 1.671l.859-1.492h-2.332l-3.743 6.264c-.062-.059-.123-.119-.246-.119l-.184.179c-1.657 1.909-3.314 3.401-4.357 3.401-.491 0-.798-.358-.246-1.253l3.744-6.384h-1.166c.061-.954-.921-2.267-2.455-2.267-1.227 0-3.007.955-3.989 2.625l-2.271 3.759-.123.119c-1.657 1.909-3.314 3.401-4.357 3.401-.491 0-.798-.358-.245-1.253l2.332-3.938c.798-1.372.429-2.147-.307-3.042l-1.289-1.551c-.307-.418-.307-.895.123-1.313l-1.228-1.312c-1.35 1.133-1.411 2.446-.613 3.46l.184.239c-1.044 1.431-2.394 3.34-3.928 5.071l.184.178c-1.902 2.148-3.559 3.52-5.4 4.296l2.945-4.892h-2.27l-.246.418c-1.227 2.088-2.639 3.639-4.48 3.639-1.596 0-1.902-1.551-.491-3.878l.675-1.134c.43.06.859.12 1.35.12 8.285 0 12.275-10.799 4.971-10.799-1.288 0-2.823.895-3.866 2.625l-3.621 6.086c-1.35-.716-2.087-1.969-2.087-3.222 0-1.074.491-2.088 1.473-2.864l-.736-1.312c-1.657 1.133-2.394 2.685-2.394 4.236 0 1.789 1.044 3.52 2.946 4.474l-.675 1.193c-1.657 2.745-1.35 5.787 1.964 5.787.982 0 1.841-.298 2.516-.716l-.613 1.014c-3.13.955-5.094 2.148-5.094 3.878 0 2.148 3.437 2.625 5.094-.179l1.779-2.983c2.394-.716 4.787-2.326 7.365-5.25-.062-.059-.062-.119-.123-.238 1.043-1.193 1.903-2.327 3.682-4.654l.307.358c.307.358.43.836.123 1.313l-2.455 4.176c-.982 1.67-.307 3.222 1.596 3.222 1.166 0 2.455-.716 3.682-1.79 0 1.014.675 1.79 2.025 1.79.921 0 2.087-.597 3.253-1.492.123.895.859 1.492 2.025 1.492 1.105 0 2.332-.657 3.498-1.671l-.859 1.432h2.332l3.56-6.026c3.559-4.355 5.155-3.758 4.112-2.088l-3.008 5.131c-.981 1.67-.306 3.222 1.596 3.222 1.227 0 2.578-.836 3.928-1.969-.123 1.133.614 1.969 2.025 1.969.921 0 2.087-.597 3.253-1.492.122.895.859 1.492 2.025 1.492 1.902 0 4.112-2.029 6.076-4.177-.246-.119-.675-.477-.982-.596zm-47.808-8.472c.675-1.133 1.473-1.67 2.086-1.67 3.683 0 1.105 7.338-4.971 7.338h-.491l3.376-5.668zm-4.971 17.063c-.491.835-1.289.716-1.289.119s.552-1.253 2.332-1.909l-1.043 1.79zm24.364-8.233c-1.412 2.148-2.823 3.162-3.744 3.162-.491 0-.797-.358-.245-1.253l3.253-5.489c1.227-2.088 3.743-1.551 2.577.478l-1.841 3.102zm22.523-.12c-1.411 2.268-2.823 3.282-3.805 3.282-.491 0-.798-.358-.245-1.253l3.252-5.489c1.228-2.088 3.744-1.551 2.578.478l-1.78 2.982zm-71.865 21.239l-.184.179c-1.657 1.909-3.314 3.4-4.358 3.4-.491 0-.798-.358-.245-1.253l3.375-5.727c.982-1.73.062-2.983-1.227-2.983-.982 0-2.087.537-3.253 1.671l.859-1.492h-2.332l-3.743 6.324c-.123-.06-.185-.119-.307-.179l-.184.179c-1.044 1.134-2.333 1.67-3.499 1.67l2.21-3.698c1.411-2.387.123-4.594-2.087-4.594-1.78 0-3.191.716-4.541 2.983l-1.166 1.909-.982 1.67c-.062-.059-.123-.059-.184-.119l-.184.179c-1.903 2.148-3.56 3.52-5.401 4.295l6.382-10.619h-2.332l-4.112 6.98c-1.779 1.611-3.191 2.506-3.62 2.327-.553-.239 0-1.074.306-1.551l4.542-7.696h-2.332l-3.744 6.264c-.061-.06-.123-.06-.184-.119l-.184.179c-1.657 1.909-3.314 3.4-4.357 3.4-.491 0-.798-.358-.246-1.253l3.376-5.727c.981-1.73.061-2.983-1.228-2.983-.982 0-2.087.537-3.253 1.671l.86-1.492h-2.332l-3.744 6.264c-.061-.059-.123-.119-.246-.119l-.184.179c-1.657 1.909-3.314 3.401-4.357 3.401-.491 0-.798-.358-.246-1.253l3.744-6.384h-1.35c.061-.954-.92-2.267-2.455-2.267-1.227 0-3.007.955-3.989 2.625l-2.394 4.057c-.184-.119-.368-.239-.49-.298l-.185.179c-1.657 1.909-3.743 3.4-6.014 3.4-1.596 0-2.578-1.551-1.166-3.878l.675-1.133c.43.06.86.119 1.35.119 2.455 0 5.278-1.253 7.12-4.355.674-1.133.92-2.148.92-3.042 0-2.029-1.35-3.401-3.069-3.401-1.288 0-2.823.895-3.866 2.625l-3.621 6.085c-1.35-.716-2.087-1.969-2.087-3.221 0-1.074.491-2.088 1.473-2.864l-.736-1.312c-1.657 1.133-2.394 2.684-2.394 4.235 0 1.79 1.044 3.52 2.946 4.475l-.675 1.193c-1.657 2.744-.675 5.787 2.64 5.787 2.577 0 4.54-1.134 6.136-2.625-.49 1.432.246 2.625 1.903 2.625.92 0 2.086-.597 3.252-1.492.123.895.86 1.492 2.026 1.492 1.104 0 2.332-.657 3.498-1.671l-.86 1.432h2.333l3.559-6.025c3.56-4.356 5.155-3.759 4.112-2.088l-3.007 5.13c-.982 1.671-.307 3.222 1.596 3.222 1.227 0 2.638-.836 3.989-2.029-.307 1.253.306 2.029 1.473 2.029 1.104 0 2.393-.895 3.436-1.85l-1.288 2.148c-3.13.895-5.156 2.148-5.156 3.878 0 2.148 3.437 2.625 5.094-.179l1.78-2.983c1.964-.597 3.866-1.79 5.892-3.699-.307 3.162 3.989 3.878 6.628.656h.491c.859 0 2.025-.298 3.068-.895l-1.534 2.625h2.332l3.559-6.025c3.56-4.355 5.156-3.759 4.112-2.088l-3.007 5.13c-.982 1.671-.307 3.222 1.596 3.222 1.902 0 4.112-2.028 6.076-4.176-.062-.179-.491-.537-.798-.656zm-57.935-8.472c.675-1.133 1.473-1.67 2.087-1.67.86 0 1.289.537 1.289 1.372 0 2.088-2.64 5.906-6.26 5.906h-.491l3.375-5.608zm8.224 8.83c-1.411 2.147-2.823 3.162-3.743 3.162-.491 0-.798-.358-.246-1.253l3.253-5.489c1.227-2.088 3.743-1.551 2.577.477l-1.84 3.103zm17.675 8.233c-.491.835-1.289.715-1.289.119 0-.597.553-1.253 2.332-1.909l-1.043 1.79zm15.711-8.472h-.123c-.736 0-1.35.597-1.35 1.372 0 .298.061.537.246.776v.059c-1.105 1.85-3.744 1.492-2.394-.894l1.78-2.983 1.105-1.85c1.657-2.684 3.866-1.611 2.454.716l-1.718 2.804zm70.27.657c-.123-.358-.552-.716-.859-.775l-.184.179c-.86.954-1.903 1.849-2.824 2.446.737-2.148.553-5.489 2.026-8.353l-1.719-.895c-.982 1.313-3.068 4.236-5.155 6.623l-.184.179c-1.657 1.909-3.314 3.4-4.357 3.4-.491 0-.982-.477-.982-1.551v-.955c1.657.179 3.375-.835 4.48-2.684l.614-1.074c2.148-3.639-1.351-4.832-3.744-2.685l3.314-5.608h-2.332l-6.628 11.216a1.886 1.886 0 00-.43-.298l-.184.179c-1.657 1.909-3.805 3.4-5.462 3.4-1.411 0-2.271-.894-1.227-2.684l2.393-4.057c1.35-2.267 3.744-1.849 2.332.477l-.307.537h1.903l.307-.537c1.227-2.088.061-3.639-1.841-3.639-1.903 0-3.376.955-4.358 2.625l-2.271 3.818c-.061 0-.122-.059-.122-.059l-.184.179c-1.657 1.909-3.314 3.4-4.358 3.4-.491 0-.798-.358-.245-1.253l4.971-8.471h-2.332l-4.112 7.039c-1.78 1.552-3.13 2.446-3.56 2.267-.552-.238 0-1.073.307-1.551l4.542-7.696h-2.332l-4.542 7.577c-.491.418-1.043.835-1.473 1.193.737-2.148.553-5.488 2.025-8.352l-1.718-.895c-.982 1.313-6.321 8.233-8.469 10.619.184.299.552.537.859.776 1.35-1.492 5.769-7.04 6.567-8.114-.921 2.327-.43 6.563-2.639 6.563-.798 0-1.105-.835-1.105-.835l-1.473.715s.43 1.85 2.578 1.85c.245 0 .429 0 .675-.06h.061c1.166-.179 2.332-.656 3.437-1.432 0 .895.552 1.492 1.534 1.492 1.289 0 2.701-1.134 3.805-2.148-.245 1.193.491 2.148 1.964 2.148 1.473 0 3.069-1.134 4.603-2.625 0 1.491 1.227 2.625 3.13 2.625 1.902 0 3.744-1.014 5.401-2.386l-1.289 2.207h2.332l2.639-4.475v1.79c0 1.909.368 2.923 2.271 2.923 1.902 0 4.111-2.028 6.075-4.176 1.351-1.491 2.455-3.042 3.314-4.116-.92 2.327-.429 6.562-2.639 6.562-.797 0-1.104-.835-1.104-.835l-1.473.716s.429 1.849 2.577 1.849c.246 0 .43.001.676-.059h.061c2.332-.418 4.725-2.267 6.444-4.236zm-15.466-1.79l.675-1.133c2.701-3.639 4.542-2.625 3.683-1.253l-1.105 1.849c-.675 1.194-2.7 2.029-3.253.537zm15.404 3.341c-.736 0-1.35.597-1.35 1.313 0 .715.553 1.312 1.35 1.312.737 0 1.351-.537 1.351-1.312 0-.716-.614-1.313-1.351-1.313zm.123-.895h2.332l7.304-12.35h-2.333l-7.303 12.35zM49.22 165.618c0 .179-.062.358-.123.537a1.3 1.3 0 01-.307.477c-.123.119-.307.238-.491.358-.184.059-.43.119-.675.119-.307 0-.552-.06-.798-.179-.245-.119-.49-.239-.675-.418-.184-.178-.245-.357-.368-.596a2.92 2.92 0 01-.123-.776c0-.537.123-.954.307-1.431.184-.418.43-.836.798-1.134.123-.119.307-.298.49-.418.185-.119.369-.238.553-.298.184-.06.307-.179.43-.238.122-.06.184-.06.245-.12l.86 1.193c-.123.06-.308.12-.492.239-.184.06-.368.179-.552.298-.184.12-.307.299-.43.478a.987.987 0 00-.184.596c.43 0 .737.119 1.044.358.368.179.49.537.49.955zm4.848 0c0 .179-.061.358-.123.537a1.298 1.298 0 01-.307.477c-.122.119-.307.238-.49.358-.185.059-.43.119-.676.119-.307 0-.552-.06-.798-.179-.245-.119-.49-.239-.675-.418a5.093 5.093 0 01-.368-.596c-.061-.239-.123-.477-.123-.776 0-.537.123-.954.307-1.431.184-.418.43-.836.798-1.134.123-.119.307-.298.491-.418.184-.119.368-.238.552-.298.184-.06.307-.179.43-.238.123-.06.184-.06.245-.12l.86 1.193c-.123.06-.307.12-.491.239-.184.06-.369.179-.553.298-.184.12-.307.299-.43.478a.988.988 0 00-.183.596c.43 0 .736.119 1.043.358.307.179.49.537.49.955zm162.695 35.138c0-.179.061-.358.122-.537.062-.179.184-.358.307-.477s.307-.239.491-.358c.184-.06.43-.119.675-.119.307 0 .553.059.798.179.246.119.491.238.675.417.184.179.246.358.368.597.062.239.123.477.123.776 0 .536-.123.954-.307 1.431-.184.418-.429.836-.798 1.134a3.389 3.389 0 01-.491.417c-.184.12-.368.239-.552.299-.184.059-.307.179-.429.238-.123.06-.185.06-.246.12l-.859-1.193c.123-.06.307-.12.491-.239.184-.06.368-.179.552-.298.184-.12.307-.299.43-.478a.986.986 0 00.184-.596c-.43 0-.737-.12-1.043-.358-.307-.179-.491-.537-.491-.955zm-4.787 0c0-.179.061-.358.122-.537.062-.179.184-.358.307-.477s.307-.239.491-.358c.184-.06.43-.119.675-.119.307 0 .553.059.798.179.246.119.491.238.675.417.123.179.246.358.368.597.062.239.123.477.123.776 0 .536-.123.954-.307 1.431-.184.418-.429.836-.798 1.134a3.431 3.431 0 01-.49.417c-.185.12-.369.239-.553.299-.184.059-.307.179-.429.238-.123.06-.185.06-.246.12l-.859-1.193c.184-.06.307-.12.491-.239.184-.06.368-.179.552-.298.184-.12.307-.299.43-.478a.986.986 0 00.184-.596c-.43 0-.737-.12-1.043-.358-.369-.179-.491-.537-.491-.955z" fill="#fff"/></svg>