<svg width="461" height="350" fill="none" xmlns="http://www.w3.org/2000/svg"><path d="M165.739 70l-.2.2c-1.405 1.5-3.01 2.2-4.515 2.2l2.809-4.9c1.806-3.1.1-6.1-2.709-6.1-2.307 0-4.113.9-5.819 3.9l-1.505 2.6-1.204 2.1-.2.2c-2.207 2.5-4.314 4.5-5.618 4.5-.703 0-1.004-.5-.301-1.6l6.42-11.2h2.408l.903-1.4H153.7l2.809-4.9h-3.01l-2.809 4.9h-2.709l-.903 1.4h2.709l-6.019 10.4c-1.305 2.2-.402 4.3 2.006 4.3 1.706 0 3.712-1.3 5.518-3.1 0 3.8 5.317 4.6 8.528.5h.702c1.806 0 4.615-1.1 6.12-2.9 0-.5-.502-.9-.903-1.1zm-6.421.2h-.1c-1.003 0-1.806.8-1.806 1.8 0 .4.1.7.301 1v.1c-1.404 2.4-4.816 2-3.11-1.2l2.307-3.9 1.405-2.4c2.107-3.6 5.016-2.2 3.21.9l-2.207 3.7zm48.057-.2l-.201.2c-2.207 2.5-4.916 4.5-7.023 4.5-1.806 0-2.909-1.2-1.605-3.6l.301-.5c1.906.8 5.618.4 7.825-3.5l.402-.7c1.605-2.8.1-4.8-2.408-4.8-2.408 0-4.314 1.3-5.618 3.5l-2.91 5-.2.2c-2.208 2.5-4.314 4.5-5.619 4.5-.702 0-1.003-.5-.301-1.6l4.314-7.6c1.305-2.3.101-3.9-1.605-3.9-1.304 0-2.709.7-4.214 2.3l4.816-8.3h-3.01L181.992 70l-.2.2c-2.208 2.5-4.315 4.5-5.619 4.5-.702 0-1.003-.5-.301-1.6l6.421-11.2h2.408l.903-1.4h-2.508l2.809-4.9h-3.01l-2.809 4.9h-2.709l-.903 1.4h2.709l-6.02 10.4c-1.304 2.2-.401 4.3 2.007 4.3 1.204 0 2.508-.6 3.812-1.6l-.802 1.3h3.01l4.514-7.9c4.615-5.8 6.622-5 5.418-2.8l-3.913 6.8c-1.304 2.2-.401 4.3 2.007 4.3 1.806 0 3.812-1.4 5.618-3.2.1 1.9 1.706 3.2 4.113 3.2 3.411 0 6.823-2.6 9.23-5.5.101-.6-.401-1-.802-1.2zm-5.719-4.2c1.706-3 4.816-2.5 3.01.6l-.401.7c-1.405 2.4-3.411 2.4-4.515 2l1.906-3.3zM316.831 70l-.201.2c-1.103 1.3-2.408 2.4-3.612 3.3 1.004-2.9.703-7.2 2.609-11.1l-2.207-1.2c-1.204 1.7-3.913 5.6-6.722 8.8l-.201.2c-2.207 2.5-4.314 4.5-5.618 4.5-.702 0-1.003-.5-.301-1.6l6.421-11.2h-3.01l-5.317 9.3c-2.308 2.1-4.013 3.2-4.615 3-.703-.3 0-1.4.401-2.1l5.819-10.2h-3.01l-4.715 8.1-.201.2c-1.404 1.5-3.01 2.2-4.515 2.2l2.81-4.9c1.805-3.1.1-6.1-2.709-6.1-2.308 0-4.114.9-5.819 3.9l-1.505 2.6-1.204 2.1-.201.2c-2.207 2.5-4.916 4.5-7.023 4.5-1.805 0-2.909-1.2-1.605-3.6l.301-.5c1.906.8 5.619.4 7.826-3.5l.401-.7c1.605-2.8.1-4.8-2.408-4.8-2.408 0-4.314 1.3-5.618 3.5l-2.91 5-.2.2c-2.508 2.9-4.615 4.7-7.023 5.7l6.722-11.5h-1.806c0-1.2-1.304-2.9-3.11-2.9-1.605 0-3.913 1.3-5.117 3.5l-2.909 5-.201.2c-2.207 2.5-4.314 4.5-5.618 4.5-.703 0-1.004-.5-.301-1.6l3.01-5.2c1.003-1.8.501-2.9-.402-4.1l-1.705-2c-.402-.5-.402-1.2.2-1.7l-1.605-1.7c-1.705 1.5-1.806 3.2-.802 4.6l.301.3c-1.305 1.9-3.111 4.4-5.117 6.7l-.201.2c-1.404 1.5-3.01 2.2-4.514 2.2l2.809-4.9c1.806-3.1.1-6.1-2.709-6.1-2.308 0-4.114.9-5.819 3.9L230.55 68l-1.204 2.1-.201.2c-2.508 2.9-4.615 4.7-7.022 5.7l6.721-11.5h-1.805c0-1.2-1.305-2.9-3.111-2.9-1.605 0-3.912 1.3-5.116 3.5l-4.214 7.3c-1.304 2.2-.401 4.3 2.007 4.3.802 0 1.806-.4 2.909-1l-.802 1.4c-4.014 1.2-6.622 2.9-6.622 5.1 0 2.9 4.414 3.5 6.622-.2l2.307-3.9c2.408-.7 4.715-2.2 7.224-4.5 0 3.8 5.317 4.6 8.527.5h.703c1.805 0 4.615-1.1 6.119-2.9 1.405-1.7 2.609-3.2 5.017-6.4l.401.5c.401.5.502 1.1.201 1.7L246 72.5c-1.304 2.2-.401 4.3 2.007 4.3 1.505 0 3.21-1 4.815-2.4 0 1.4.903 2.4 2.609 2.4.803 0 1.806-.4 2.909-1l-.702 1.2c-4.013 1.2-6.621 2.9-6.621 5.1 0 2.9 4.414 3.5 6.621-.2l2.308-3.9c2.407-.8 4.815-2.2 7.324-4.6.1 1.9 1.605 3.2 4.113 3.2 2.408 0 4.916-1.4 6.922-3.2-.1 3.9 5.318 4.7 8.528.6h.702c.903 0 2.208-.3 3.311-.9-.802 2.1-.1 3.5 1.605 3.5 1.606 0 3.512-1.5 4.916-2.9-.301 1.6.703 2.9 2.609 2.9 2.508 0 5.317-2.6 7.825-5.5 1.706-2 3.211-4.1 4.314-5.5-1.204 3.1-.501 8.7-3.411 8.7-1.003 0-1.404-1.1-1.404-1.1l-1.906 1s.501 2.4 3.31 2.4c.301 0 .502 0 .803-.1h.1c3.11-.4 6.12-2.8 8.327-5.4-.1-.5-.602-1-1.103-1.1zm-43.04-4.2c1.705-3 4.815-2.5 3.01.6l-.402.7c-1.404 2.4-3.411 2.4-4.514 2l1.906-3.3zm-57.387 15.6c-.602 1.1-1.605 1-1.605.1 0-.8.702-1.7 3.01-2.6l-1.405 2.5zm1.405-6.7c-.703 0-1.004-.5-.301-1.6l4.213-7.3c1.606-2.8 4.816-2.1 3.311.6l-2.307 4c-1.806 2.9-3.713 4.3-4.916 4.3zm18.46-4.5h-.101c-1.003 0-1.806.8-1.806 1.8 0 .4.101.7.301 1v.1c-1.404 2.4-4.815 2-3.11-1.2l2.308-3.9 1.404-2.4c2.107-3.6 5.017-2.2 3.211.9l-2.207 3.7zm18.861 11.2c-.602 1.1-1.605 1-1.605.1 0-.8.702-1.7 3.01-2.6l-1.405 2.5zm1.405-6.7c-.703 0-1.004-.5-.301-1.6l4.213-7.3c1.606-2.8 4.816-2.1 3.311.6l-2.307 4c-1.806 2.9-3.713 4.3-4.916 4.3zm29.596-4.5h-.1c-1.004 0-1.806.8-1.806 1.8 0 .4.1.7.301 1v.1c-1.405 2.4-4.816 2-3.11-1.2l2.307-3.9 1.405-2.4c2.106-3.6 5.016-2.2 3.21.9l-2.207 3.7zm-155.606-3.4H101.53v2h28.995v-2zm227.741 0h-28.995v2h28.995v-2z" fill="#766458"/><path d="M163.532 0h7.725l-1.204 44.9h-14.547l-2.007-18.5-2.006 18.5h-14.648L135.742 0h7.625l.601 37.2h.803L149.687 0h7.625l4.916 37.2h.802l.502-37.2zm31.904 37.2V45h-20.968V0h20.968v7.7h-13.343v10.8h10.634v7.7h-10.634v10.9h13.343v.1zm21.47 0V45h-18.36V0h7.625v37.2h10.735zm16.253-8.8l7.725-1.8v13.6c0 2.6-2.207 4.7-4.715 4.7h-11.538c-2.608 0-4.715-2.2-4.715-4.7V4.7c0-2.6 2.107-4.7 4.715-4.7h11.538c2.508 0 4.715 2.1 4.715 4.7v9.1l-7.725 1.8v-8h-5.518v29.5h5.518v-8.7zM261.752 0c2.508 0 4.715 2.1 4.715 4.7v35.4c0 2.6-2.207 4.7-4.715 4.7h-11.538c-2.608 0-4.715-2.2-4.715-4.7V4.7c0-2.6 2.107-4.7 4.715-4.7h11.538zm-3.01 7.7h-5.518v29.5h5.518V7.7zM291.549 0h7.624v44.9h-7.624V22.8l-3.11 11.4h-7.525l-3.01-11.4v22.1h-7.625V0h7.625l6.822 21.7L291.549 0zm32.405 37.2V45h-20.968V0h20.968v7.7h-13.343v10.8h10.634v7.7h-10.634v10.9h13.343v.1z" fill="#81B3D3"/><path d="M44.445 157.6c-3.612-3-8.127-5-12.942-5-3.612 0-8.328 2.1-8.328 6.3 0 4.4 5.318 6.1 8.628 7.1l5.017 1.5c10.434 3.1 18.56 8.3 18.56 20.4 0 7.4-1.806 15.1-7.725 20.1-5.92 5-13.745 7-21.27 7-9.43 0-18.76-3.2-26.385-8.5L8.126 191c4.916 4.3 10.635 7.7 17.357 7.7 4.615 0 9.43-2.3 9.43-7.5 0-5.5-7.624-7.3-11.838-8.5-12.24-3.6-20.266-6.7-20.266-21.2 0-15.2 10.835-25.1 25.884-25.1 7.525 0 16.855 2.4 23.477 6.2l-7.725 15zm47.454-2.8v12.5h21.971v16.5H91.899v12.9h23.276v16.5h-42.74v-74.8h42.74v16.5l-23.276-.1zm37.723-16.4h27.69c20.868 0 38.124 16.4 38.124 37.4s-17.357 37.4-38.124 37.4h-27.69v-74.8zm19.563 58.3h4.415c11.638 0 21.57-6.4 21.57-20.9 0-13.4-8.829-20.9-21.37-20.9h-4.615v41.8zm138.451-22.3c0 24.2-17.457 41.3-41.535 41.3-24.079 0-41.535-17.1-41.535-41.3 0-22.6 19.965-38.5 41.535-38.5 21.57 0 41.535 15.9 41.535 38.5zm-62.804.1c0 12.9 9.531 22.3 21.168 22.3 11.638 0 21.169-9.4 21.169-22.3 0-10.3-9.531-19.8-21.169-19.8-11.537 0-21.168 9.5-21.168 19.8zm73.138-36.1h19.563l35.716 45.8h.201v-45.8h19.564v74.8H353.45l-35.716-45.9h-.201v45.9H297.97v-74.8zm110.459 61.8l-5.217 13h-20.667l28.894-74.8h21.269L461 213.2h-20.767l-4.916-13h-26.888zm13.644-38.7h-.2l-8.026 23.8H430.1l-8.027-23.8zM108.252 287.7c7.725-2.6 8.227-12.2.703-12.2-2.107 0-4.615 1.5-6.321 4.4l-10.233 17.7c-.502.8-.903 1.5-1.505 2.2-2.609-3.6-1.906-9 1.806-11.4l-1.505-1.9c-8.026 5.1-5.618 19.7 7.725 19.7 11.337 0 16.654-13.6 9.33-18.5zm-9.43 15.6c-2.308 0-4.014-.5-5.518-1.3.702-.8 1.304-1.7 1.906-2.7l6.421-11.1 1.003.1c8.929 1.9 5.418 15-3.812 15zm4.113-17.3l3.11-5.3c2.809-4.8 6.321-2 4.414 1.6-1.504 2.8-3.611 3.6-7.524 3.7z" fill="#fff"/><path d="M140.457 300c-.602 2.2.602 4.1 3.11 4.1 1.505 0 3.411-1 5.318-2.5.2 1.5 1.404 2.5 3.31 2.5 2.007 0 4.214-1.4 6.421-3.4-.401 2 .502 3.4 2.408 3.4 2.107 0 4.414-1.9 6.22-3.6-.401 2 .803 3.6 3.211 3.6 3.11 0 6.722-3.4 9.932-7 0-.1-.1-.1-.1-.2 2.107-2.4 3.912-5 5.317-6.8-1.505 3.9-.702 11-4.314 11-1.304 0-1.806-1.4-1.806-1.4l-2.408 1.2s.703 3.1 4.214 3.1c.401 0 .702 0 1.104-.1h.1c2.809-.4 5.518-2.1 7.926-4.2.1 2.5 2.006 4.3 5.116 4.3 4.314 0 8.628-3.4 11.739-7-.301-.5-.903-1.1-1.405-1.3l-.301.3c-2.709 3.2-6.22 5.7-8.929 5.7-2.308 0-3.712-1.5-2.007-4.5l.402-.7c2.408 1 7.023.5 9.932-4.4l.502-.9c2.006-3.5.1-6.1-3.01-6.1s-5.518 1.6-7.123 4.4l-3.712 6.3h-.101l-.301.3c-1.404 1.6-3.11 3.1-4.615 4.1 1.204-3.6.903-9.2 3.311-14l-2.809-1.5c-1.605 2.2-5.016 7.1-8.427 11.1l.1.1-.1.2c-2.709 3.2-5.418 5.7-7.124 5.7-.802 0-1.304-.6-.401-2.1l8.126-14.2h-3.812l-6.722 11.8c-2.909 2.6-5.116 4.1-5.819 3.8-.903-.4 0-1.8.502-2.6l7.424-12.9h-3.812l-6.02 10.4c-.1-.1-.201-.1-.301-.2l-.301.3c-2.709 3.2-5.418 5.7-7.123 5.7-.803 0-1.304-.6-.401-2.1l6.12-10.7h-2.208c.101-1.6-1.505-3.8-4.013-3.8-2.006 0-4.916 1.6-6.521 4.4l-3.812 6.6c-.201-.2-.402-.3-.602-.4l-.301.3c-2.709 3.2-6.221 5.7-8.929 5.7-2.308 0-3.712-1.5-2.007-4.5l3.913-6.8c2.207-3.8 6.12-3.1 3.812.8l-.501.9h3.11l.501-.9c2.007-3.5.101-6.1-3.009-6.1-3.111 0-5.518 1.6-7.124 4.4l-3.812 6.5c-.1-.1-.201-.1-.301-.2l-.301.3c-2.709 3.2-6.22 5.7-8.929 5.7-2.307 0-3.712-1.5-2.007-4.5l.402-.7c2.408 1 7.023.5 9.932-4.4l.502-.9c2.006-3.5.1-6.1-3.01-6.1s-5.518 1.6-7.123 4.4l-4.013 6.8c-2.408 4-.301 7.8 4.213 7.8 3.311 0 6.722-2 9.431-4.6-.1 2.6 1.906 4.6 5.117 4.6 3.21-.2 6.32-2 9.029-4.3zm58.189-9.6c2.208-3.8 6.12-3.1 3.813.8l-.502.9c-1.806 3.1-4.314 3-5.718 2.5l2.407-4.2zm-54.376 9.3l5.317-9.2c2.006-3.5 6.12-2.6 4.214.8l-3.01 5.2c-2.308 3.6-4.615 5.3-6.12 5.3-.803-.1-1.304-.6-.401-2.1zm-24.279-9.3c2.207-3.8 6.119-3.1 3.812.8l-.502.9c-1.806 3.1-4.314 3-5.718 2.5l2.408-4.2zm129.019 13.7c4.314 0 8.628-3.4 11.738-7-.3-.5-.902-1.1-1.404-1.3l-.301.3c-2.709 3.2-6.22 5.7-8.929 5.7-2.308 0-3.712-1.5-2.007-4.5l.402-.7c2.407 1 7.023.5 9.932-4.4l.502-.9c2.006-3.5.1-6.1-3.01-6.1s-5.518 1.6-7.123 4.4l-3.712 6.3s-.101 0-.101-.1l-.301.3c-2.709 3.2-5.417 5.7-7.123 5.7-.803 0-1.304-.6-.401-2.1l5.518-9.6c1.605-2.9.1-5-2.007-5-1.605 0-3.411.9-5.317 2.9l6.12-10.5h-3.913L226.838 296c-.1-.1-.301-.2-.401-.3l-.301.3c-2.709 3.2-5.418 5.7-7.123 5.7-.803 0-1.305-.6-.402-2.1l8.127-14.2h3.11l1.104-1.8h-3.111l3.612-6.2h-3.812l-3.612 6.2h-3.411l-1.104 1.8h3.512l-7.625 13.2c-1.605 2.8-.502 5.4 2.608 5.4 1.907 0 3.913-1.2 6.02-3l-1.505 2.6h3.813l5.818-10c5.819-7.3 8.428-6.4 6.823-3.6l-4.916 8.6c-1.606 2.8-.502 5.4 2.608 5.4 2.308 0 4.916-1.8 7.324-4.2 0 2.5 1.906 4.3 5.016 4.3zm3.11-13.7c2.208-3.8 6.12-3.1 3.813.8l-.502.9c-1.806 3.1-4.314 3-5.718 2.5l2.407-4.2zm112.266 5.4l-.301.3c-2.709 3.2-5.418 5.7-7.123 5.7-.803 0-1.305-.6-.402-2.1l12.842-22.2h-3.812l-5.619 9.6c-.702-1.1-1.906-2-3.511-2-2.007 0-4.916 1.6-6.521 4.4l-3.712 6.4c-.101 0-.201-.1-.201-.1l-.301.3c-2.709 3.2-5.418 5.7-7.123 5.7-.803 0-1.304-.6-.401-2.1l5.518-9.6c1.605-2.9.1-5-2.007-5-1.605 0-3.411.9-5.317 2.8l1.404-2.5h-3.812l-6.12 10.5c-.1-.1-.201-.2-.401-.2l-.301.3c-2.709 3.2-5.418 5.7-7.124 5.7-.802 0-1.304-.6-.401-2.1l6.12-10.7h-1.906c.1-1.6-1.505-3.8-4.013-3.8-2.007 0-4.916 1.6-6.521 4.4l-3.712 6.3-.201.2c-2.709 3.2-5.418 5.7-7.123 5.7-.803 0-1.305-.6-.402-2.1l3.813-6.6c1.304-2.3.702-3.6-.502-5.1l-2.107-2.6c-.501-.7-.501-1.5.201-2.2l-2.007-2.2c-2.207 1.9-2.307 4.1-1.003 5.8l.301.4c-1.705 2.4-3.913 5.6-6.421 8.5l.301.3c-3.11 3.6-5.819 5.9-8.828 7.2l4.815-8.2h-3.712l-.401.7c-2.007 3.5-4.314 6.1-7.324 6.1-2.609 0-3.11-2.6-.803-6.5l1.104-1.9c.702.1 1.405.2 2.207.2 13.544 0 20.065-18.1 8.127-18.1-2.107 0-4.615 1.5-6.321 4.4l-5.919 10.2c-2.207-1.2-3.411-3.3-3.411-5.4 0-1.8.802-3.5 2.407-4.8l-1.203-2.2c-2.709 1.9-3.913 4.5-3.913 7.1 0 3 1.705 5.9 4.815 7.5l-1.103 2c-2.709 4.6-2.207 9.7 3.21 9.7 1.606 0 3.01-.5 4.114-1.2l-1.004 1.7c-5.116 1.6-8.327 3.6-8.327 6.5 0 3.6 5.619 4.4 8.327-.3l2.91-5c3.913-1.2 7.825-3.9 12.039-8.8-.1-.1-.1-.2-.201-.4 1.706-2 3.111-3.9 6.02-7.8l.502.6c.501.6.702 1.4.2 2.2l-4.013 7c-1.605 2.8-.501 5.4 2.609 5.4 1.906 0 4.013-1.2 6.019-3 0 1.7 1.104 3 3.311 3 1.505 0 3.411-1 5.317-2.5.201 1.5 1.405 2.5 3.311 2.5 1.806 0 3.813-1.1 5.719-2.8l-1.405 2.4h3.813l5.819-10.1c5.819-7.3 8.427-6.3 6.721-3.5l-4.916 8.6c-1.605 2.8-.501 5.4 2.609 5.4 2.006 0 4.214-1.4 6.421-3.3-.201 1.9 1.003 3.3 3.311 3.3 1.505 0 3.411-1 5.317-2.5.201 1.5 1.404 2.5 3.311 2.5 3.11 0 6.722-3.4 9.932-7-.401-.2-1.104-.8-1.605-1zm-78.155-14.2c1.104-1.9 2.408-2.8 3.412-2.8 6.019 0 1.805 12.3-8.127 12.3h-.802l5.517-9.5zm-8.126 28.6c-.803 1.4-2.107 1.2-2.107.2s.903-2.1 3.813-3.2l-1.706 3zm39.83-13.8c-2.308 3.6-4.615 5.3-6.12 5.3-.803 0-1.305-.6-.402-2.1l5.318-9.2c2.006-3.5 6.12-2.6 4.213.8l-3.009 5.2zm36.819-.2c-2.307 3.8-4.615 5.5-6.22 5.5-.802 0-1.304-.6-.401-2.1l5.317-9.2c2.007-3.5 6.12-2.6 4.214.8l-2.91 5zm-117.482 35.6l-.301.3c-2.709 3.2-5.417 5.7-7.123 5.7-.803 0-1.304-.6-.401-2.1l5.518-9.6c1.605-2.9.1-5-2.007-5-1.605 0-3.411.9-5.317 2.8l1.404-2.5h-3.812l-6.12 10.6c-.201-.1-.301-.2-.502-.3l-.301.3c-1.705 1.9-3.812 2.8-5.718 2.8l3.612-6.2c2.307-4 .2-7.7-3.412-7.7-2.909 0-5.216 1.2-7.424 5l-1.906 3.2-1.605 2.8c-.1-.1-.201-.1-.301-.2l-.301.3c-3.11 3.6-5.819 5.9-8.829 7.2l10.434-17.8h-3.812l-6.722 11.7c-2.91 2.7-5.217 4.2-5.919 3.9-.903-.4 0-1.8.501-2.6l7.424-12.9h-3.812L184.4 332c-.1-.1-.201-.1-.301-.2l-.301.3c-2.709 3.2-5.417 5.7-7.123 5.7-.803 0-1.304-.6-.401-2.1l5.518-9.6c1.605-2.9.1-5-2.007-5-1.605 0-3.411.9-5.317 2.8l1.404-2.5h-3.812l-6.12 10.5c-.1-.1-.201-.2-.401-.2l-.301.3c-2.709 3.2-5.418 5.7-7.123 5.7-.803 0-1.305-.6-.402-2.1l6.12-10.7h-2.207c.1-1.6-1.505-3.8-4.013-3.8-2.007 0-4.916 1.6-6.521 4.4l-3.913 6.8c-.301-.2-.602-.4-.803-.5l-.301.3c-2.708 3.2-6.12 5.7-9.832 5.7-2.608 0-4.213-2.6-1.906-6.5l1.104-1.9c.702.1 1.404.2 2.207.2 4.013 0 8.628-2.1 11.638-7.3 1.103-1.9 1.505-3.6 1.505-5.1 0-3.4-2.207-5.7-5.017-5.7-2.106 0-4.615 1.5-6.32 4.4l-5.919 10.2c-2.208-1.2-3.412-3.3-3.412-5.4 0-1.8.803-3.5 2.408-4.8l-1.204-2.2c-2.708 1.9-3.912 4.5-3.912 7.1 0 3 1.705 5.9 4.815 7.5l-1.103 2c-2.709 4.6-1.104 9.7 4.314 9.7 4.213 0 7.424-1.9 10.032-4.4-.802 2.4.402 4.4 3.111 4.4 1.504 0 3.411-1 5.317-2.5.201 1.5 1.404 2.5 3.311 2.5 1.805 0 3.812-1.1 5.718-2.8l-1.404 2.4h3.812l5.819-10.1c5.819-7.3 8.427-6.3 6.722-3.5l-4.916 8.6c-1.605 2.8-.502 5.4 2.608 5.4 2.007 0 4.314-1.4 6.522-3.4-.502 2.1.501 3.4 2.407 3.4 1.806 0 3.913-1.5 5.619-3.1l-2.107 3.6c-5.117 1.5-8.428 3.6-8.428 6.5 0 3.6 5.619 4.4 8.328-.3l2.909-5c3.21-1 6.321-3 9.631-6.2-.501 5.3 6.522 6.5 10.836 1.1h.802c1.405 0 3.311-.5 5.017-1.5l-2.509 4.4h3.813l5.819-10.1c5.819-7.3 8.427-6.3 6.722-3.5l-4.916 8.6c-1.606 2.8-.502 5.4 2.608 5.4 3.11 0 6.722-3.4 9.932-7-.1-.3-.802-.9-1.304-1.1zm-94.708-14.2c1.104-1.9 2.408-2.8 3.411-2.8 1.405 0 2.107.9 2.107 2.3 0 3.5-4.314 9.9-10.233 9.9h-.803l5.518-9.4zm13.444 14.8c-2.308 3.6-4.615 5.3-6.12 5.3-.803 0-1.304-.6-.402-2.1l5.318-9.2c2.006-3.5 6.12-2.6 4.214.8l-3.01 5.2zm28.894 13.8c-.803 1.4-2.107 1.2-2.107.2s.903-2.1 3.812-3.2l-1.705 3zm25.683-14.2h-.2c-1.204 0-2.208 1-2.208 2.3 0 .5.101.9.402 1.3v.1c-1.806 3.1-6.12 2.5-3.913-1.5l2.91-5 1.805-3.1c2.709-4.5 6.321-2.7 4.013 1.2l-2.809 4.7zm114.874 1.1c-.201-.6-.903-1.2-1.404-1.3l-.301.3c-1.405 1.6-3.111 3.1-4.615 4.1 1.203-3.6.902-9.2 3.31-14l-2.809-1.5c-1.605 2.2-5.016 7.1-8.427 11.1l-.301.3c-2.709 3.2-5.418 5.7-7.123 5.7-.803 0-1.606-.8-1.606-2.6v-1.6c2.709.3 5.518-1.4 7.324-4.5l1.003-1.8c3.512-6.1-2.207-8.1-6.119-4.5l5.417-9.4h-3.812l-10.835 18.8c-.201-.2-.502-.4-.703-.5l-.301.3c-2.709 3.2-6.22 5.7-8.929 5.7-2.307 0-3.712-1.5-2.006-4.5l3.912-6.8c2.208-3.8 6.12-3.1 3.813.8l-.502.9h3.11l.502-.9c2.006-3.5.1-6.1-3.01-6.1s-5.518 1.6-7.123 4.4l-3.712 6.4c-.1 0-.201-.1-.201-.1l-.301.3c-2.709 3.2-5.417 5.7-7.123 5.7-.803 0-1.304-.6-.401-2.1l8.126-14.2H276.5l-6.722 11.8c-2.91 2.6-5.117 4.1-5.819 3.8-.903-.4 0-1.8.502-2.6l7.424-12.9h-3.813l-7.424 12.7c-.802.7-1.705 1.4-2.408 2 1.204-3.6.903-9.2 3.311-14l-2.809-1.5c-1.605 2.2-10.334 13.8-13.845 17.8.301.5.903.9 1.405 1.3 2.207-2.5 9.43-11.8 10.734-13.6-1.504 3.9-.702 11-4.314 11-1.304 0-1.805-1.4-1.805-1.4l-2.408 1.2s.702 3.1 4.213 3.1c.402 0 .703 0 1.104-.1h.1c1.907-.3 3.813-1.1 5.619-2.4 0 1.5.903 2.5 2.508 2.5 2.107 0 4.414-1.9 6.22-3.6-.401 2 .803 3.6 3.21 3.6 2.408 0 5.017-1.9 7.525-4.4 0 2.5 2.006 4.4 5.117 4.4 3.11 0 6.12-1.7 8.828-4l-2.107 3.7h3.813l4.314-7.5v3c0 3.2.602 4.9 3.712 4.9 3.11 0 6.722-3.4 9.932-7 2.207-2.5 4.013-5.1 5.418-6.9-1.505 3.9-.702 11-4.314 11-1.304 0-1.806-1.4-1.806-1.4l-2.408 1.2s.702 3.1 4.214 3.1c.401 0 .702 0 1.104-.1h.1c3.812-.7 7.725-3.8 10.534-7.1zm-25.282-3l1.103-1.9c4.415-6.1 7.425-4.4 6.02-2.1l-1.806 3.1c-1.103 2-4.414 3.4-5.317.9zm25.182 5.6c-1.204 0-2.207 1-2.207 2.2 0 1.2.903 2.2 2.207 2.2 1.204 0 2.207-.9 2.207-2.2 0-1.2-1.003-2.2-2.207-2.2zm.2-1.5h3.813l11.939-20.7h-3.813l-11.939 20.7zM80.462 277.6c0 .3-.1.6-.201.9-.1.3-.3.6-.502.8-.2.2-.501.4-.802.6-.301.1-.703.2-1.104.2-.501 0-.903-.1-1.304-.3-.401-.2-.803-.4-1.104-.7-.3-.3-.4-.6-.602-1-.1-.4-.2-.8-.2-1.3 0-.9.2-1.6.501-2.4.301-.7.703-1.4 1.305-1.9.2-.2.501-.5.802-.7.301-.2.602-.4.903-.5.301-.1.502-.3.703-.4.2-.1.3-.1.4-.2l1.405 2c-.2.1-.501.2-.802.4-.301.1-.602.3-.903.5-.301.2-.502.5-.703.8-.2.3-.3.6-.3 1 .702 0 1.204.2 1.705.6.602.3.803.9.803 1.6zm7.925 0c0 .3-.1.6-.2.9-.1.3-.301.6-.502.8-.2.2-.501.4-.802.6-.301.1-.703.2-1.104.2-.502 0-.903-.1-1.304-.3-.401-.2-.803-.4-1.104-.7-.2-.3-.401-.6-.602-1-.1-.4-.2-.8-.2-1.3 0-.9.2-1.6.501-2.4.301-.7.703-1.4 1.304-1.9.201-.2.502-.5.803-.7.301-.2.602-.4.903-.5.301-.1.502-.3.702-.4.2-.1.301-.1.402-.2l1.404 2c-.2.1-.501.2-.802.4-.302.1-.602.3-.903.5-.301.2-.502.5-.703.8-.2.3-.3.6-.3 1 .702 0 1.203.2 1.705.6.502.3.803.9.803 1.6zm265.966 58.9c0-.3.1-.6.201-.9.1-.3.301-.6.501-.8.201-.2.502-.4.803-.6.301-.1.702-.2 1.103-.2.502 0 .903.1 1.305.3.401.2.802.4 1.103.7.301.3.402.6.602 1 .101.4.201.8.201 1.3 0 .9-.201 1.6-.502 2.4-.301.7-.702 1.4-1.304 1.9-.201.2-.502.5-.803.7-.301.2-.602.4-.903.5-.3.1-.501.3-.702.4-.2.1-.301.1-.401.2l-1.405-2c.201-.1.502-.2.803-.4.301-.1.602-.3.903-.5.301-.2.501-.5.702-.8.201-.3.301-.6.301-1-.702 0-1.204-.2-1.705-.6-.502-.3-.803-.9-.803-1.6zm-7.825 0c0-.3.1-.6.2-.9.1-.3.301-.6.502-.8.2-.2.501-.4.802-.6.301-.1.703-.2 1.104-.2.502 0 .903.1 1.304.3.402.2.803.4 1.104.7.2.3.401.6.602 1 .1.4.2.8.2 1.3 0 .9-.2 1.6-.501 2.4-.301.7-.702 1.4-1.304 1.9-.201.2-.502.5-.803.7-.301.2-.602.4-.903.5-.301.1-.502.3-.702.4-.201.1-.301.1-.402.2l-1.404-2c.301-.1.501-.2.802-.4.301-.1.602-.3.903-.5.301-.2.502-.5.703-.8.2-.3.301-.6.301-1-.703 0-1.204-.2-1.706-.6-.602-.3-.802-.9-.802-1.6z" fill="#fff"/></svg>