<svg width="32" height="37" fill="none" xmlns="http://www.w3.org/2000/svg"><path d="M30.578 10.91H18.184c6.908-3.353 7.467-5.473 7.213-6.657-.559-1.923-2.845-3.403-4.978-2.614-2.794 1.036-3.556 5.08-4.317 7.99-.966-2.96-1.88-6.708-4.064-8.631-.61-.542-1.524-1.085-2.895-.986C7.11.209 4.216 2.626 5.435 5.338c1.117 2.614 4.825 4.29 7.314 5.622H1.422C.61 10.96 0 11.601 0 12.341v5.524c0 .789.66 1.38 1.422 1.38h.153V37h28.952V19.246h.05c.813 0 1.423-.641 1.423-1.381V12.34c0-.789-.66-1.43-1.422-1.43zm-9.346-8.038c1.066-.148 2.489.641 2.641 1.578.203 1.332-1.676 2.565-2.54 3.107-1.27.839-2.489 1.283-3.657 1.973.407-1.825 1.27-6.362 3.556-6.658zM9.752 7.705c-1.117-.74-3.25-2.17-3.2-3.797.051-1.776 2.896-3.206 4.42-1.874 1.93 1.627 2.844 5.425 3.555 8.088-1.625-.79-3.15-1.381-4.775-2.417zm2.997 27.816H3.048V19.245h9.701V35.52zm0-17.755H1.524V12.39h11.225v5.376zm5.08 17.755h-3.607V12.39h3.607v23.13zm11.174 0h-9.65V19.245h9.701V35.52h-.05zm1.473-17.755H19.352V12.39h11.124v5.376z" fill="#81B3D2"/></svg>