<svg width="39" height="36" fill="none" xmlns="http://www.w3.org/2000/svg"><path d="M15.402 32.41h8.353V20.547h-8.353V32.41zm6.839-1.44h-5.325v-8.983h5.273v8.983h.052z" fill="#81B3D2"/><path d="M37.904 19.555L39 18.512 33.831 13.6V.199h-7.205v6.55L19.474 0 0 18.562l1.096 1.042 4.073-3.871v18.76H3.133v1.44h33.361v-1.44h-2.663v-18.81l4.073 3.872zM28.14 1.687h4.124V12.16L28.14 8.239V1.687zm4.176 32.757H6.735v-20.2l12.739-12.16 12.791 12.16v20.2h.052z" fill="#81B3D2"/><path d="M15.558 13.5c0 2.134 1.828 3.87 4.02 3.87 2.245 0 4.073-1.736 4.073-3.87 0-2.135-1.828-3.822-4.073-3.822s-4.02 1.687-4.02 3.821zm4.02-2.482c1.41 0 2.61 1.092 2.61 2.481 0 1.34-1.148 2.482-2.61 2.482-1.41 0-2.61-1.092-2.61-2.482 0-1.34 1.2-2.481 2.61-2.481zm-9.188 9.53H8.822v1.935h1.566v-1.935zm3.08 0h-1.566v1.935h1.566v-1.935zm-3.08 2.977H8.822v1.936h1.566v-1.936zm3.08 0h-1.566v1.936h1.566v-1.936zm13.574-2.977h-1.566v1.935h1.566v-1.935zm3.133 0H28.61v1.935h1.566v-1.935zm-3.133 2.977h-1.566v1.936h1.566v-1.936zm3.133 0H28.61v1.936h1.566v-1.936z" fill="#81B3D2"/></svg>