<svg width="75" height="72" fill="none" xmlns="http://www.w3.org/2000/svg"><path d="M29.619 64.939h16.064V41.17H29.619v23.768zm13.152-2.884h-10.24v-18h10.14v18h.1z" fill="#81B3D2"/><path d="M72.892 39.182L75 37.094l-9.94-9.845V.398H51.205v13.127L37.45 0 0 37.193l2.108 2.089 7.832-7.757v37.591H6.024V72h64.157v-2.884h-5.12v-37.69l7.83 7.756zm-18.775-35.8h7.931v20.983l-7.931-7.857V3.381zm8.032 65.635H12.952V28.54L37.45 4.177 62.048 28.54v40.476h.1z" fill="#81B3D2"/><path d="M29.92 27.05c0 4.275 3.514 7.756 7.73 7.756 4.318 0 7.832-3.48 7.832-7.757 0-4.276-3.514-7.657-7.831-7.657-4.318 0-7.731 3.38-7.731 7.657zm7.73-4.973c2.712 0 5.02 2.188 5.02 4.972 0 2.685-2.208 4.972-5.02 4.972-2.71 0-5.02-2.187-5.02-4.972 0-2.685 2.31-4.972 5.02-4.972zM19.98 41.17h-3.012v3.88h3.012v-3.88zm5.924 0h-3.012v3.88h3.012v-3.88zm-5.924 5.969h-3.012v3.878h3.012V47.14zm5.924 0h-3.012v3.878h3.012V47.14zm26.104-5.969h-3.012v3.88h3.012v-3.88zm6.024 0H55.02v3.88h3.012v-3.88zm-6.024 5.969h-3.012v3.878h3.012V47.14zm6.024 0H55.02v3.878h3.012V47.14z" fill="#81B3D2"/></svg>