<svg width="75" height="73" fill="none" xmlns="http://www.w3.org/2000/svg"><path d="M29.5 65.3h16V41.4h-16v23.9zm13.1-2.9H32.4V44.3h10.1v18.1h.1z" fill="#81B3D2"/><path d="M72.6 39.4l2.1-2.1-9.9-9.9V.4H51v13.2L37.3 0 0 37.4l2.1 2.1 7.8-7.8v37.8H6v2.9h63.9v-2.9h-5.1V31.6l7.8 7.8zm-18.7-36h7.9v21.1l-7.9-7.9V3.4zm8 66h-49V28.7L37.3 4.2l24.5 24.5v40.7h.1z" fill="#81B3D2"/><path d="M29.8 27.2c0 4.3 3.5 7.8 7.7 7.8 4.3 0 7.8-3.5 7.8-7.8s-3.5-7.7-7.8-7.7-7.7 3.4-7.7 7.7zm7.7-5c2.7 0 5 2.2 5 5 0 2.7-2.2 5-5 5-2.7 0-5-2.2-5-5 0-2.7 2.3-5 5-5zM19.9 41.4h-3v3.9h3v-3.9zm5.9 0h-3v3.9h3v-3.9zm-5.9 6h-3v3.9h3v-3.9zm5.9 0h-3v3.9h3v-3.9zm26-6h-3v3.9h3v-3.9zm6 0h-3v3.9h3v-3.9zm-6 6h-3v3.9h3v-3.9zm6 0h-3v3.9h3v-3.9z" fill="#81B3D2"/></svg>